<svg xmlns="http://www.w3.org/2000/svg" data-name="Layer 1" viewBox="0 0 100 125" x="0px" y="0px">
    <path
        d="M82.51,25A43.77,43.77,0,0,0,70.59,14,39.71,39.71,0,0,0,44.24,9.33,34.28,34.28,0,0,0,22.4,18.86a32.44,32.44,0,0,0-10.13,15C8,45.31,9,58.35,13.67,69.54,20.23,83.69,36.39,91,51.4,91.23c.46,0,.93,0,1.39,0q1.08,0,2.13-.06C73,90.24,86.86,77.31,89.73,59,91.69,47.34,89.87,34.6,82.51,25ZM65.8,55.48c-1.26.82-2.57,1.59-3.82,2.41-5.3,3.47-10.54,7-16.08,10.09-2.07,1.15-4.32,2.68-6.76,2.8h-.3c-1.24,0-2.6.06-3.26-1.2a4.13,4.13,0,0,1-.4-1.66,54.16,54.16,0,0,1,.34-6.49c.12-2.52.28-5,.33-7.57C36,48,36,42.21,36.23,36.38c.05-1.45-.27-4.43,1.41-5.14,3.48-1.46,8.1,1.5,11,3.34a117.29,117.29,0,0,1,10.17,7.59c1.67,1.35,3.34,2.71,5,4A31.82,31.82,0,0,1,68,49.31,3.46,3.46,0,0,1,69,52a3.78,3.78,0,0,1-1.66,2.43C66.85,54.78,66.33,55.14,65.8,55.48Z" />
    <path
        d="M41.78,37.29c-.69,7.59-.84,15.24-1,22.86,0,1.17,0,2.34,0,3.51,1-.59,2-1.14,2.84-1.74C49.74,58.19,55.9,54.5,62.19,51c-5.82-4.62-11.57-9.38-18.29-12.68C43.2,38,42.5,37.64,41.78,37.29Z" />

</svg>